<svg id="Capa_1" enable-background="new 0 0 510 510" height="512" viewBox="0 0 510 510" width="512" xmlns="http://www.w3.org/2000/svg"><g><path d="m166.661 370.789-4.583 21.364 15.769 15.769 21.365-4.583 32.772 13.575 11.866 18.348h22.301l11.866-18.348 32.772-13.575 21.365 4.583 15.769-15.769-4.583-21.364 13.575-32.772 18.348-11.866v-22.301l-18.348-11.866-13.575-32.772 4.583-21.364-15.769-15.769-21.365 4.583-32.772-13.575-11.866-18.348h-22.301l-11.866 18.348-32.772 13.575-21.365-4.583-15.769 15.769 4.583 21.364-13.575 32.772-18.348 11.866v22.301l18.348 11.866zm88.339-120.789c35.841 0 65 29.159 65 65s-29.159 65-65 65-65-29.159-65-65 29.159-65 65-65z"/><circle cx="255" cy="315" r="35"/><path d="m0 451.714c0 32.191 26.095 58.286 58.286 58.286h393.429c32.19 0 58.286-26.095 58.286-58.286v-331.714h-510.001zm104.738-164.191 24.208-15.655 6.421-15.503-6.047-28.188 38.856-38.856 28.188 6.048 15.502-6.421 15.656-24.209h54.951l15.656 24.209 15.502 6.421 28.188-6.048 38.856 38.856-6.047 28.188 6.421 15.503 24.208 15.655v54.953l-24.208 15.655-6.421 15.503 6.047 28.188-38.856 38.856-28.188-6.048-15.502 6.421-15.656 24.209h-54.951l-15.656-24.209-15.502-6.421-28.188 6.048-38.856-38.856 6.047-28.188-6.421-15.503-24.208-15.655z"/><path d="m390 0h-180v60h-30v-60h-30v60h-30v-60h-30v60h-30v-60h-60v90h390z"/><path d="m420 0h90v90h-90z"/></g></svg>